<svg xmlns="http://www.w3.org/2000/svg" xmlns:xlink="http://www.w3.org/1999/xlink" width="500" zoomAndPan="magnify" viewBox="0 0 375 374.999991" height="500" preserveAspectRatio="xMidYMid meet" version="1.2"><defs><clipPath id="d5f7a9c684"><path d="M 49 63.121094 L 326 63.121094 L 326 310 L 49 310 Z M 49 63.121094 "/></clipPath><clipPath id="34bef7d135"><path d="M 109.328125 297.300781 L 52.664062 199.152344 C 52.121094 198.210938 51.644531 197.242188 51.230469 196.238281 C 50.8125 195.238281 50.464844 194.210938 50.183594 193.164062 C 49.902344 192.117188 49.691406 191.054688 49.550781 189.980469 C 49.410156 188.90625 49.339844 187.824219 49.339844 186.742188 C 49.339844 185.65625 49.410156 184.574219 49.550781 183.5 C 49.691406 182.425781 49.902344 181.363281 50.183594 180.316406 C 50.464844 179.269531 50.8125 178.242188 51.230469 177.242188 C 51.644531 176.238281 52.121094 175.269531 52.664062 174.328125 L 109.328125 76.179688 C 109.871094 75.242188 110.472656 74.339844 111.132812 73.480469 C 111.792969 72.621094 112.507812 71.808594 113.273438 71.039062 C 114.042969 70.273438 114.855469 69.558594 115.714844 68.898438 C 116.578125 68.238281 117.476562 67.636719 118.417969 67.09375 C 119.355469 66.550781 120.328125 66.074219 121.328125 65.660156 C 122.332031 65.242188 123.355469 64.894531 124.40625 64.613281 C 125.453125 64.332031 126.515625 64.121094 127.589844 63.980469 C 128.664062 63.839844 129.746094 63.769531 130.828125 63.769531 L 244.160156 63.769531 C 245.246094 63.769531 246.324219 63.839844 247.398438 63.980469 C 248.476562 64.121094 249.535156 64.335938 250.585938 64.613281 C 251.632812 64.894531 252.65625 65.242188 253.660156 65.660156 C 254.660156 66.074219 255.632812 66.550781 256.570312 67.09375 C 257.511719 67.636719 258.410156 68.238281 259.273438 68.898438 C 260.132812 69.558594 260.945312 70.273438 261.714844 71.039062 C 262.480469 71.808594 263.195312 72.621094 263.855469 73.480469 C 264.515625 74.34375 265.117188 75.242188 265.65625 76.179688 L 322.324219 174.328125 C 322.867188 175.269531 323.34375 176.238281 323.757812 177.242188 C 324.175781 178.242188 324.523438 179.269531 324.804688 180.316406 C 325.082031 181.363281 325.296875 182.425781 325.4375 183.5 C 325.578125 184.578125 325.648438 185.65625 325.648438 186.742188 C 325.648438 187.828125 325.578125 188.90625 325.4375 189.980469 C 325.296875 191.058594 325.082031 192.117188 324.804688 193.167969 C 324.523438 194.214844 324.175781 195.238281 323.757812 196.242188 C 323.34375 197.242188 322.867188 198.214844 322.324219 199.152344 L 265.65625 297.300781 C 265.117188 298.242188 264.515625 299.140625 263.855469 300 C 263.195312 300.863281 262.480469 301.675781 261.710938 302.441406 C 260.945312 303.210938 260.132812 303.921875 259.269531 304.582031 C 258.410156 305.242188 257.511719 305.84375 256.570312 306.386719 C 255.632812 306.929688 254.660156 307.40625 253.660156 307.824219 C 252.65625 308.238281 251.632812 308.585938 250.585938 308.867188 C 249.535156 309.148438 248.476562 309.359375 247.398438 309.5 C 246.324219 309.640625 245.246094 309.710938 244.160156 309.710938 L 130.828125 309.710938 C 129.746094 309.710938 128.664062 309.640625 127.589844 309.5 C 126.515625 309.359375 125.453125 309.148438 124.40625 308.867188 C 123.355469 308.585938 122.332031 308.238281 121.328125 307.824219 C 120.328125 307.40625 119.355469 306.929688 118.417969 306.386719 C 117.476562 305.84375 116.578125 305.242188 115.714844 304.582031 C 114.855469 303.921875 114.042969 303.207031 113.273438 302.441406 C 112.507812 301.675781 111.792969 300.859375 111.132812 300 C 110.472656 299.140625 109.871094 298.238281 109.328125 297.300781 Z M 109.328125 297.300781 "/></clipPath><filter x="0%" y="0%" width="100%" filterUnits="objectBoundingBox" id="1daf09976d" height="100%"><feColorMatrix values="0 0 0 0 1 0 0 0 0 1 0 0 0 0 1 0 0 0 1 0" type="matrix" in="SourceGraphic"/></filter><clipPath id="951faba407"><path d="M 0.078125 1 L 165 1 L 165 171 L 0.078125 171 Z M 0.078125 1 "/></clipPath><clipPath id="e1a5e663fb"><rect x="0" width="167" y="0" height="171"/></clipPath></defs><g id="db7f256767"><g clip-rule="nonzero" clip-path="url(#d5f7a9c684)"><g clip-rule="nonzero" clip-path="url(#34bef7d135)"><path style=" stroke:none;fill-rule:nonzero;fill:#ffffff;fill-opacity:1;" d="M 49.339844 63.769531 L 49.339844 309.710938 L 325.648438 309.710938 L 325.648438 63.769531 Z M 49.339844 63.769531 "/></g></g><g mask="url(#05426d2b7d)" transform="matrix(1,0,0,1,142,141)"><g clip-path="url(#e1a5e663fb)"><g clip-rule="nonzero" clip-path="url(#951faba407)"><path style=" stroke:none;fill-rule:nonzero;fill:#ffffff;fill-opacity:1;" d="M 164.714844 94.269531 L 81.382812 10.929688 L 45.496094 1.328125 L 13.257812 13.308594 L 0.808594 45.742188 L 10.820312 81.855469 L 99.191406 170.226562 L 117.945312 169.390625 Z M 164.714844 94.269531 "/></g></g><mask id="05426d2b7d"><g filter="url(#1daf09976d)"><rect x="0" width="375" y="0" height="374.999991" style="fill:#000000;fill-opacity:0.07;stroke:none;"/></g></mask></g><path style=" stroke:none;fill-rule:nonzero;fill:#000000;fill-opacity:1;" d="M 187.496094 136.667969 C 159.84375 136.667969 137.425781 159.085938 137.425781 186.742188 C 137.425781 214.394531 159.84375 236.8125 187.496094 236.8125 C 215.148438 236.8125 237.5625 214.394531 237.5625 186.742188 C 237.5625 159.085938 215.144531 136.667969 187.496094 136.667969 M 187.496094 224.730469 C 166.511719 224.730469 149.503906 207.722656 149.503906 186.738281 C 149.503906 165.757812 166.511719 148.75 187.496094 148.75 C 208.476562 148.75 225.488281 165.757812 225.488281 186.742188 C 225.488281 207.722656 208.476562 224.734375 187.496094 224.734375 "/><path style=" stroke:none;fill-rule:nonzero;fill:#000000;fill-opacity:1;" d="M 163.726562 184.808594 L 163.726562 200.371094 C 166.066406 204.386719 169.21875 207.605469 173.183594 210.03125 L 173.183594 184.808594 Z M 182.476562 171.6875 L 182.476562 213.589844 C 184.085938 213.882812 185.730469 214.0625 187.417969 214.0625 C 188.960938 214.0625 190.464844 213.902344 191.9375 213.65625 L 191.9375 171.6875 Z M 202.101562 191.273438 L 202.101562 209.757812 C 206.132812 207.195312 209.285156 203.8125 211.558594 199.613281 L 211.558594 191.277344 Z M 223.523438 217.582031 L 218.339844 222.773438 C 218.117188 222.996094 217.949219 223.246094 217.828125 223.535156 C 217.710938 223.824219 217.652344 224.121094 217.652344 224.433594 C 217.652344 224.742188 217.710938 225.042969 217.832031 225.332031 C 217.949219 225.617188 218.117188 225.871094 218.339844 226.09375 L 238.015625 245.761719 C 238.234375 245.980469 238.488281 246.152344 238.777344 246.269531 C 239.0625 246.386719 239.363281 246.449219 239.671875 246.449219 C 239.984375 246.449219 240.285156 246.386719 240.570312 246.269531 C 240.859375 246.152344 241.113281 245.980469 241.332031 245.761719 L 246.519531 240.578125 C 246.738281 240.355469 246.90625 240.101562 247.023438 239.816406 C 247.140625 239.527344 247.199219 239.230469 247.199219 238.917969 C 247.199219 238.609375 247.140625 238.308594 247.023438 238.023438 C 246.90625 237.734375 246.738281 237.480469 246.519531 237.261719 L 226.839844 217.582031 C 226.621094 217.363281 226.367188 217.195312 226.078125 217.078125 C 225.792969 216.957031 225.492188 216.898438 225.183594 216.898438 C 224.871094 216.898438 224.574219 216.957031 224.285156 217.078125 C 224 217.195312 223.746094 217.363281 223.523438 217.582031 "/></g></svg>