<svg xmlns="http://www.w3.org/2000/svg" xmlns:xlink="http://www.w3.org/1999/xlink" width="500" zoomAndPan="magnify" viewBox="0 0 375 374.999991" height="500" preserveAspectRatio="xMidYMid meet" version="1.2"><g id="04011b1f96"><path style=" stroke:none;fill-rule:nonzero;fill:#ffffff;fill-opacity:1;" d="M 231.652344 137.40625 L 267.671875 108.773438 L 261.335938 100.871094 C 259.546875 99.3125 257.710938 97.808594 255.828125 96.367188 C 253.945312 94.921875 252.015625 93.539062 250.046875 92.214844 C 248.078125 90.890625 246.066406 89.632812 244.019531 88.4375 C 241.96875 87.238281 239.882812 86.109375 237.765625 85.042969 C 235.644531 83.976562 233.492188 82.976562 231.308594 82.046875 C 229.128906 81.117188 226.917969 80.253906 224.679688 79.464844 C 222.441406 78.671875 220.183594 77.953125 217.902344 77.300781 C 215.617188 76.652344 213.316406 76.074219 211 75.570312 C 208.679688 75.066406 206.347656 74.632812 204.003906 74.273438 C 201.65625 73.914062 199.304688 73.632812 196.9375 73.421875 C 194.574219 73.210938 192.207031 73.074219 189.835938 73.011719 C 187.464844 72.949219 185.089844 72.960938 182.71875 73.050781 C 180.347656 73.136719 177.984375 73.296875 175.621094 73.535156 C 173.261719 73.769531 170.910156 74.078125 168.566406 74.464844 C 166.226562 74.847656 163.898438 75.304688 161.585938 75.832031 C 159.273438 76.363281 156.976562 76.964844 154.703125 77.640625 C 152.4375 78.324219 150.195312 79.078125 147.976562 79.90625 C 145.757812 80.730469 143.566406 81.628906 141.402344 82.59375 C 139.242188 83.558594 137.113281 84.589844 135.015625 85.6875 C 132.917969 86.785156 130.859375 87.949219 128.835938 89.179688 C 126.8125 90.410156 124.828125 91.703125 122.886719 93.054688 C 120.945312 94.410156 119.046875 95.824219 117.195312 97.300781 C 115.34375 98.773438 113.539062 100.304688 111.785156 101.894531 C 110.027344 103.480469 108.324219 105.125 106.671875 106.820312 C 105.019531 108.515625 103.425781 110.261719 101.882812 112.058594 C 100.339844 113.855469 98.859375 115.699219 97.433594 117.589844 C 96.007812 119.480469 94.644531 121.414062 93.339844 123.390625 C 92.039062 125.367188 90.796875 127.382812 89.621094 129.4375 C 88.445312 131.492188 87.335938 133.582031 86.292969 135.707031 C 85.25 137.832031 84.273438 139.988281 83.367188 142.175781 C 82.460938 144.363281 81.621094 146.574219 80.855469 148.816406 C 80.085938 151.054688 79.390625 153.316406 78.765625 155.597656 C 78.191406 157.757812 84.722656 153.730469 87.605469 154.53125 L 137.386719 146.359375 C 137.386719 146.359375 139.8125 143.992188 141.226562 142.445312 C 163.367188 118.28125 200.898438 115.113281 226.457031 135.6875 Z M 231.652344 137.40625 "/><path style=" stroke:none;fill-rule:nonzero;fill:#ffffff;fill-opacity:1;" d="M 295.101562 155.046875 C 293.675781 149.832031 291.878906 144.746094 289.714844 139.796875 C 287.546875 134.84375 285.035156 130.074219 282.171875 125.484375 C 279.3125 120.898438 276.136719 116.542969 272.640625 112.417969 C 269.144531 108.292969 265.371094 104.445312 261.316406 100.871094 L 226.382812 135.613281 C 228.191406 137.082031 229.914062 138.648438 231.546875 140.3125 C 233.175781 141.976562 234.710938 143.726562 236.144531 145.566406 C 237.578125 147.402344 238.902344 149.316406 240.117188 151.304688 C 241.335938 153.292969 242.433594 155.34375 243.417969 157.457031 C 244.402344 159.570312 245.261719 161.734375 246 163.945312 C 246.738281 166.15625 247.347656 168.398438 247.828125 170.679688 C 248.3125 172.960938 248.664062 175.261719 248.886719 177.582031 C 249.109375 179.902344 249.199219 182.226562 249.15625 184.558594 L 249.15625 190.722656 C 266.335938 190.722656 280.269531 204.5625 280.269531 221.648438 C 280.269531 238.695312 266.335938 252.554688 249.15625 252.554688 L 186.980469 252.496094 L 180.777344 253.164062 L 180.777344 301.019531 L 186.980469 302.03125 L 249.15625 302.03125 C 251.304688 302.054688 253.449219 301.988281 255.59375 301.839844 C 257.738281 301.6875 259.871094 301.453125 261.996094 301.132812 C 264.121094 300.8125 266.230469 300.40625 268.324219 299.917969 C 270.414062 299.429688 272.484375 298.859375 274.53125 298.207031 C 276.578125 297.550781 278.597656 296.820312 280.585938 296.003906 C 282.574219 295.1875 284.527344 294.296875 286.445312 293.328125 C 288.363281 292.355469 290.238281 291.3125 292.070312 290.191406 C 293.90625 289.070312 295.691406 287.878906 297.429688 286.617188 C 299.167969 285.355469 300.855469 284.023438 302.488281 282.628906 C 304.121094 281.230469 305.695312 279.773438 307.210938 278.25 C 308.730469 276.726562 310.183594 275.144531 311.574219 273.507812 C 312.964844 271.871094 314.285156 270.179688 315.542969 268.433594 C 316.796875 266.691406 317.980469 264.898438 319.09375 263.0625 C 320.207031 261.222656 321.242188 259.34375 322.207031 257.421875 C 323.167969 255.5 324.054688 253.542969 324.859375 251.550781 C 325.667969 249.558594 326.394531 247.539062 327.039062 245.488281 C 327.675781 243.445312 328.230469 241.375 328.703125 239.285156 C 329.171875 237.191406 329.558594 235.085938 329.863281 232.964844 C 330.164062 230.84375 330.378906 228.710938 330.511719 226.570312 C 330.644531 224.433594 330.6875 222.289062 330.648438 220.148438 C 330.605469 218.003906 330.480469 215.867188 330.269531 213.734375 C 330.058594 211.601562 329.761719 209.480469 329.378906 207.371094 C 328.996094 205.261719 328.53125 203.171875 327.980469 201.097656 C 327.429688 199.027344 326.796875 196.980469 326.082031 194.960938 C 325.371094 192.9375 324.574219 190.949219 323.703125 188.992188 C 322.828125 187.035156 321.878906 185.117188 320.851562 183.234375 C 319.824219 181.355469 318.722656 179.515625 317.546875 177.722656 C 316.371094 175.929688 315.125 174.1875 313.8125 172.496094 C 312.496094 170.804688 311.117188 169.164062 309.671875 167.582031 C 308.222656 166 306.71875 164.480469 305.148438 163.019531 C 303.582031 161.558594 301.957031 160.160156 300.277344 158.832031 C 298.597656 157.5 296.863281 156.238281 295.082031 155.046875 Z M 295.101562 155.046875 "/><path style=" stroke:none;fill-rule:nonzero;fill:#ffffff;fill-opacity:1;" d="M 124.714844 302.011719 L 186.925781 302.011719 L 186.925781 252.496094 L 124.695312 252.496094 C 120.265625 252.496094 115.894531 251.234375 111.867188 249.421875 L 103.125 252.09375 L 78.058594 276.851562 L 75.882812 285.386719 C 79.367188 288.042969 83.046875 290.398438 86.914062 292.460938 C 90.78125 294.519531 94.789062 296.253906 98.9375 297.667969 C 103.082031 299.078125 107.320312 300.148438 111.640625 300.871094 C 115.960938 301.597656 120.3125 301.972656 124.695312 301.992188 Z M 124.714844 302.011719 "/><path style=" stroke:none;fill-rule:nonzero;fill:#ffffff;fill-opacity:1;" d="M 124.714844 141.148438 C 122.628906 141.15625 120.546875 141.246094 118.464844 141.417969 C 116.386719 141.585938 114.316406 141.835938 112.257812 142.167969 C 110.199219 142.496094 108.15625 142.90625 106.128906 143.394531 C 104.097656 143.882812 102.09375 144.449219 100.109375 145.09375 C 98.125 145.734375 96.167969 146.457031 94.242188 147.25 C 92.3125 148.046875 90.417969 148.914062 88.554688 149.855469 C 86.695312 150.796875 84.875 151.808594 83.089844 152.894531 C 81.308594 153.976562 79.570312 155.125 77.875 156.34375 C 76.183594 157.5625 74.539062 158.839844 72.945312 160.1875 C 71.347656 161.53125 69.808594 162.933594 68.324219 164.398438 C 66.835938 165.863281 65.410156 167.382812 64.042969 168.957031 C 62.675781 170.53125 61.367188 172.15625 60.125 173.832031 C 58.882812 175.507812 57.707031 177.230469 56.597656 178.996094 C 55.488281 180.761719 54.449219 182.570312 53.480469 184.414062 C 52.511719 186.261719 51.617188 188.144531 50.792969 190.058594 C 49.96875 191.976562 49.21875 193.921875 48.546875 195.898438 C 47.882812 197.871094 47.292969 199.867188 46.785156 201.882812 C 46.273438 203.902344 45.839844 205.9375 45.488281 207.992188 C 45.136719 210.042969 44.867188 212.105469 44.671875 214.179688 C 44.480469 216.253906 44.371094 218.328125 44.339844 220.410156 C 44.3125 222.492188 44.363281 224.574219 44.492188 226.652344 C 44.625 228.730469 44.839844 230.800781 45.132812 232.863281 C 45.425781 234.921875 45.796875 236.96875 46.25 239.003906 C 46.699219 241.035156 47.230469 243.046875 47.839844 245.039062 C 48.449219 247.03125 49.132812 248.996094 49.894531 250.933594 C 50.65625 252.871094 51.492188 254.777344 52.402344 256.648438 C 53.3125 258.523438 54.292969 260.355469 55.347656 262.152344 C 56.398438 263.949219 57.519531 265.703125 58.707031 267.414062 C 59.898438 269.121094 61.152344 270.78125 62.46875 272.394531 C 63.785156 274.007812 65.164062 275.566406 66.605469 277.070312 C 68.042969 278.574219 69.539062 280.019531 71.09375 281.410156 C 72.644531 282.796875 74.246094 284.121094 75.902344 285.386719 L 111.980469 249.421875 C 110.457031 248.742188 109 247.945312 107.605469 247.03125 C 106.214844 246.117188 104.902344 245.09375 103.675781 243.96875 C 102.445312 242.839844 101.316406 241.621094 100.289062 240.3125 C 99.257812 239 98.339844 237.617188 97.53125 236.15625 C 96.726562 234.699219 96.042969 233.183594 95.484375 231.613281 C 94.921875 230.042969 94.492188 228.4375 94.191406 226.800781 C 93.890625 225.160156 93.722656 223.507812 93.691406 221.839844 C 93.65625 220.171875 93.757812 218.515625 93.996094 216.863281 C 94.230469 215.214844 94.597656 213.59375 95.097656 212.003906 C 95.59375 210.410156 96.21875 208.871094 96.964844 207.382812 C 97.714844 205.890625 98.578125 204.472656 99.554688 203.121094 C 100.53125 201.773438 101.613281 200.511719 102.792969 199.335938 C 103.976562 198.160156 105.246094 197.089844 106.601562 196.117188 C 107.960938 195.148438 109.382812 194.296875 110.878906 193.558594 C 112.375 192.820312 113.917969 192.207031 115.511719 191.71875 C 117.105469 191.230469 118.726562 190.871094 120.378906 190.648438 C 122.03125 190.410156 123.691406 190.304688 125.363281 190.335938 C 127.03125 190.367188 128.6875 190.53125 130.328125 190.828125 C 131.972656 191.125 133.578125 191.550781 135.152344 192.105469 C 136.726562 192.660156 138.246094 193.339844 139.710938 194.136719 C 141.175781 194.9375 142.566406 195.851562 143.886719 196.875 C 145.203125 197.898438 146.433594 199.019531 147.570312 200.242188 C 148.707031 201.464844 149.738281 202.769531 150.667969 204.15625 C 151.59375 205.542969 152.40625 206.996094 153.097656 208.515625 L 189.175781 172.664062 C 187.285156 170.207031 185.253906 167.867188 183.09375 165.644531 C 180.929688 163.421875 178.644531 161.332031 176.242188 159.371094 C 173.839844 157.410156 171.332031 155.59375 168.71875 153.921875 C 166.105469 152.246094 163.40625 150.730469 160.621094 149.367188 C 157.832031 148.007812 154.976562 146.808594 152.054688 145.773438 C 149.128906 144.742188 146.15625 143.878906 143.132812 143.1875 C 140.109375 142.496094 137.054688 141.980469 133.972656 141.636719 C 130.886719 141.296875 127.796875 141.132812 124.695312 141.148438 Z M 124.714844 141.148438 "/></g></svg>