<svg xmlns="http://www.w3.org/2000/svg" xmlns:xlink="http://www.w3.org/1999/xlink" width="500" zoomAndPan="magnify" viewBox="0 0 375 374.999991" height="500" preserveAspectRatio="xMidYMid meet" version="1.2"><defs><clipPath id="80c7ff3015"><path d="M 158 25.269531 L 216 25.269531 L 216 82 L 158 82 Z M 158 25.269531 "/></clipPath></defs><g id="f5c304aa4e"><g clip-rule="nonzero" clip-path="url(#80c7ff3015)"><path style=" stroke:none;fill-rule:nonzero;fill:#ffffff;fill-opacity:1;" d="M 186.8125 25.269531 C 176.339844 25.273438 166.722656 31.050781 161.800781 40.292969 C 156.878906 49.539062 157.453125 60.742188 163.292969 69.433594 L 175.402344 57.34375 C 175.003906 56.136719 174.800781 54.871094 174.804688 53.601562 C 174.804688 47 180.15625 41.648438 186.761719 41.648438 C 193.363281 41.648438 198.714844 47 198.714844 53.601562 C 198.714844 60.203125 193.363281 65.558594 186.761719 65.558594 C 185.496094 65.558594 184.238281 65.359375 183.039062 64.960938 L 170.945312 77.050781 C 181.015625 83.882812 194.320312 83.519531 204.003906 76.152344 C 213.6875 68.785156 217.585938 56.058594 213.691406 44.53125 C 209.796875 33.003906 198.980469 25.25 186.8125 25.269531 Z M 186.8125 25.269531 "/></g><path style=" stroke:none;fill-rule:nonzero;fill:#ffffff;fill-opacity:1;" d="M 175.539062 107.84375 C 175.558594 98.273438 172.457031 88.957031 166.710938 81.304688 L 150.996094 97 C 155.910156 105.988281 154.140625 117.160156 146.691406 124.191406 L 155.234375 145.058594 C 167.886719 136.910156 175.535156 122.894531 175.539062 107.84375 Z M 175.539062 107.84375 "/><path style=" stroke:none;fill-rule:nonzero;fill:#ffffff;fill-opacity:1;" d="M 131.628906 130.371094 L 131.21875 130.371094 C 121.582031 130.375 113.007812 124.246094 109.886719 115.128906 C 106.765625 106.011719 109.785156 95.917969 117.402344 90.011719 C 125.019531 84.105469 135.546875 83.695312 143.601562 88.988281 L 159.160156 73.429688 C 144.03125 61.164062 122.664062 60.21875 106.511719 71.097656 C 90.359375 81.980469 83.203125 102.132812 88.882812 120.765625 C 94.5625 139.394531 111.742188 152.128906 131.21875 152.148438 C 134.222656 152.148438 137.222656 151.851562 140.167969 151.261719 Z M 131.628906 130.371094 "/><path style=" stroke:none;fill-rule:nonzero;fill:#ffffff;fill-opacity:1;" d="M 187.410156 148.425781 C 177.574219 148.414062 167.792969 149.847656 158.375 152.675781 L 170.824219 183.09375 C 176.246094 181.753906 181.808594 181.074219 187.390625 181.078125 C 219.746094 181.089844 247.589844 203.949219 253.894531 235.683594 C 260.199219 267.417969 243.210938 299.1875 213.316406 311.5625 C 183.421875 323.941406 148.949219 313.476562 130.976562 286.574219 C 113.003906 259.671875 116.539062 223.820312 139.417969 200.941406 C 144.191406 196.183594 149.640625 192.15625 155.589844 188.988281 L 143.277344 158.65625 C 97.375 181.136719 75.644531 234.472656 92.765625 282.632812 C 109.882812 330.789062 160.410156 358.4375 210.199219 346.898438 C 259.988281 335.363281 293.199219 288.304688 287.390625 237.527344 C 281.585938 186.746094 238.605469 148.40625 187.496094 148.40625 Z M 187.410156 148.425781 "/></g></svg>