<svg xmlns="http://www.w3.org/2000/svg" xmlns:xlink="http://www.w3.org/1999/xlink" width="500" zoomAndPan="magnify" viewBox="0 0 375 374.999991" height="500" preserveAspectRatio="xMidYMid meet" version="1.2"><defs><clipPath id="5d72a231aa"><path d="M 6.027344 132 L 89 132 L 89 248 L 6.027344 248 Z M 6.027344 132 "/></clipPath><clipPath id="26333586ab"><path d="M 305 101.785156 L 342 101.785156 L 342 138 L 305 138 Z M 305 101.785156 "/></clipPath><clipPath id="3922baa495"><path d="M 332 139 L 369 139 L 369 273.535156 L 332 273.535156 Z M 332 139 "/></clipPath></defs><g id="641c40645a"><g clip-rule="nonzero" clip-path="url(#5d72a231aa)"><path style=" stroke:none;fill-rule:nonzero;fill:#6d6b6c;fill-opacity:1;" d="M 6.058594 242.492188 L 6.058594 136.902344 C 6.058594 134.441406 8.058594 132.441406 10.519531 132.441406 L 24.285156 132.441406 C 26.75 132.441406 28.75 134.441406 28.75 136.902344 L 28.75 171.359375 C 33.164062 165.96875 43.027344 160.582031 55.203125 160.582031 C 74.628906 160.582031 88.480469 173.457031 88.480469 193.863281 L 88.480469 242.617188 C 88.480469 245.082031 86.480469 247.082031 84.019531 247.082031 L 70.253906 247.082031 C 67.792969 247.082031 65.792969 245.082031 65.792969 242.617188 L 65.792969 199.675781 C 65.792969 187.933594 58.289062 181.570312 48.488281 181.570312 C 38.6875 181.570312 28.738281 187.921875 28.738281 199.675781 L 28.738281 242.617188 C 28.738281 245.082031 26.738281 247.082031 24.273438 247.082031 L 10.671875 247.082031 C 8.121094 247.09375 6.058594 245.019531 6.058594 242.480469 Z M 6.058594 242.492188 "/></g><path style=" stroke:none;fill-rule:nonzero;fill:#6d6b6c;fill-opacity:1;" d="M 102.609375 216.128906 L 102.609375 166.832031 C 102.609375 164.371094 104.609375 162.371094 107.070312 162.371094 L 120.734375 162.371094 C 123.199219 162.371094 125.199219 164.371094 125.199219 166.832031 L 125.199219 210.300781 C 125.199219 222.039062 132.789062 228.304688 142.6875 228.304688 C 152.589844 228.304688 161.664062 222.039062 161.664062 210.300781 L 161.664062 166.832031 C 161.664062 164.371094 163.667969 162.371094 166.128906 162.371094 L 179.792969 162.371094 C 182.257812 162.371094 184.257812 164.371094 184.257812 166.832031 L 184.257812 242.628906 C 184.257812 245.09375 182.257812 247.09375 179.792969 247.09375 L 167.128906 247.09375 C 164.667969 247.09375 162.640625 245.15625 162.515625 242.695312 L 162.292969 237.742188 C 157.878906 243.746094 148.789062 249.308594 135.988281 249.308594 C 116.398438 249.308594 102.621094 236.507812 102.621094 216.128906 Z M 102.609375 216.128906 "/><path style=" stroke:none;fill-rule:nonzero;fill:#6d6b6c;fill-opacity:1;" d="M 199.769531 242.492188 L 199.769531 136.90625 C 199.769531 134.441406 201.773438 132.441406 204.234375 132.441406 L 217.546875 132.441406 C 220.011719 132.441406 222.011719 134.441406 222.011719 136.90625 L 222.011719 172.609375 C 227.5625 165.546875 236.3125 160.609375 249.902344 160.609375 C 273.917969 160.609375 290.945312 178.875 290.945312 204.652344 C 290.945312 230.429688 273.90625 248.871094 249.902344 248.871094 C 237.449219 248.871094 227.835938 244.542969 222.375 238.09375 L 222.148438 242.707031 C 222.023438 245.167969 220 247.09375 217.535156 247.09375 L 204.382812 247.09375 C 201.832031 247.09375 199.769531 245.03125 199.769531 242.480469 L 199.78125 242.480469 Z M 245.316406 228.578125 C 258.742188 228.578125 268.265625 217.988281 268.265625 204.5625 C 268.265625 191.136719 258.816406 180.910156 245.316406 180.910156 C 231.8125 180.910156 222.273438 191.046875 222.273438 204.5625 C 222.273438 218.078125 231.886719 228.578125 245.316406 228.578125 "/><path style=" stroke:none;fill-rule:nonzero;fill:#6d6b6c;fill-opacity:1;" d="M 305.960938 192.414062 C 309.023438 208.226562 306.984375 223.804688 300.257812 236.867188 C 299.21875 238.894531 299.820312 241.367188 301.722656 242.644531 L 313.25 250.382812 C 315.410156 251.832031 318.398438 251.144531 319.636719 248.859375 C 329.089844 231.492188 332.550781 210.328125 328.25 188.101562 C 326.636719 179.785156 324.027344 171.921875 320.511719 164.671875 C 319.3125 162.183594 316.136719 161.421875 313.898438 163.035156 L 302.523438 171.222656 C 300.808594 172.460938 300.199219 174.710938 301.058594 176.648438 C 303.210938 181.523438 304.875 186.800781 305.972656 192.4375 Z M 305.960938 192.414062 "/><path style=" stroke:none;fill-rule:nonzero;fill:#6d6b6c;fill-opacity:1;" d="M 298.007812 135.691406 C 295.996094 134.027344 292.984375 134.503906 291.507812 136.667969 L 283.679688 148.195312 C 282.394531 150.09375 282.769531 152.632812 284.519531 154.121094 C 286.457031 155.78125 288.292969 157.582031 290.03125 159.507812 C 291.570312 161.210938 294.121094 161.519531 295.980469 160.183594 L 307.273438 152.070312 C 309.386719 150.554688 309.785156 147.53125 308.085938 145.570312 C 305.007812 141.992188 301.648438 138.691406 298.007812 135.691406 "/><g clip-rule="nonzero" clip-path="url(#26333586ab)"><path style=" stroke:none;fill-rule:nonzero;fill:#6d6b6c;fill-opacity:1;" d="M 320.324219 102.738281 C 318.285156 101.136719 315.324219 101.601562 313.859375 103.75 L 306.097656 115.175781 C 304.796875 117.101562 305.183594 119.691406 306.984375 121.140625 C 312.484375 125.566406 317.523438 130.628906 322.023438 136.242188 C 323.511719 138.09375 326.175781 138.457031 328.101562 137.082031 L 339.289062 129.027344 C 341.351562 127.542969 341.765625 124.628906 340.191406 122.628906 C 334.339844 115.226562 327.6875 108.550781 320.3125 102.738281 Z M 320.324219 102.738281 "/></g><g clip-rule="nonzero" clip-path="url(#3922baa495)"><path style=" stroke:none;fill-rule:nonzero;fill:#6d6b6c;fill-opacity:1;" d="M 334.6875 148.054688 C 332.902344 149.34375 332.3125 151.742188 333.328125 153.707031 C 338.1875 163.132812 341.839844 173.546875 344.027344 184.8125 C 349.242188 211.703125 345.027344 237.65625 333.238281 258.871094 C 332.113281 260.894531 332.714844 263.445312 334.640625 264.746094 L 346.117188 272.445312 C 348.277344 273.898438 351.214844 273.195312 352.503906 270.945312 C 367.617188 244.417969 372.53125 212.527344 366.320312 180.496094 C 363.605469 166.496094 358.929688 153.355469 352.542969 141.441406 C 351.265625 139.066406 348.179688 138.367188 346.003906 139.941406 L 334.714844 148.066406 Z M 334.6875 148.054688 "/></g></g></svg>